# xmcd
#
# Track frame offsets: 
#        150
#        23309
#        45829
#        59738
#        88190
#        111163
#        132835
#        157993
#        176673
#        193177
#        210262
#        232086
#        253185
#        272254
#        290390
#
# Disc length: 4165 seconds
#
# Revision: 0
# Processed by: cddbd v1.5.2PL0 Copyright (c) Steve Scherf et al.
# Submitted via: ExactAudioCopyFreeDBPlugin 1.0
#
DISCID=ca10430f
DTITLE=Various Artist - 情歌试音王
DYEAR=2008
DGENRE=Country
TTITLE0=那滋味
TTITLE1=爱情里没有谁对谁错
TTITLE2=左眼皮跳跳
TTITLE3=爱忧伤
TTITLE4=等爱的玫瑰
TTITLE5=不要在我寂寞的时候说爱我
TTITLE6=怎么会狠心伤害我
TTITLE7=忘不掉的伤
TTITLE8=有缘人
TTITLE9=你是我心内的一首歌
TTITLE10=下辈子不做女人
TTITLE11=一万个理由
TTITLE12=不管还有多少个明天
TTITLE13=从此我该怎么过
TTITLE14=我是一个被爱伤过的人
EXTD=
EXTT0=
EXTT1=
EXTT2=
EXTT3=
EXTT4=
EXTT5=
EXTT6=
EXTT7=
EXTT8=
EXTT9=
EXTT10=
EXTT11=
EXTT12=
EXTT13=
EXTT14=
PLAYORDER=
